<?xml version="1.0" encoding="UTF-8"?>
<svg id="Layer_1" xmlns="http://www.w3.org/2000/svg" version="1.1" viewBox="0 0 800 800">
  <!-- Generator: Adobe Illustrator 30.1.0, SVG Export Plug-In . SVG Version: 2.1.1 Build 136)  -->
  <defs>
    <style>
      .st0 {
        fill: none;
      }

      .st1 {
        fill: #0f0f0f;
      }
    </style>
  </defs>
  <path class="st0" d="M399.57,33.33h33.55c-1.28-7.94-8.15-14-16.45-14h-33.33c-8.3,0-15.17,6.06-16.45,14h32.69Z"/>
  <rect class="st0" x="366.67" y="100" width="66.67" height="66.67"/>
  <path class="st0" d="M609.95,166.67c-13.64-38.48-50.34-66.67-94.32-66.67h-82.3v66.67h176.62Z"/>
  <path class="st0" d="M366.67,100h-82.3c-43.98,0-80.68,28.18-94.32,66.67h176.62v-66.67Z"/>
  <path class="st0" d="M400,272c18.41,0,33.33-14.92,33.33-33.33v-5.33h-66.67v5.33c0,18.41,14.92,33.33,33.33,33.33Z"/>
  <path class="st0" d="M433.33,238.67c0,18.41-14.92,33.33-33.33,33.33s-33.33-14.92-33.33-33.33v-5.33h-178.91l54.68,437.47c2.09,16.68,16.27,29.2,33.08,29.2h248.96c16.81,0,30.99-12.52,33.08-29.2l54.68-437.47h-178.91v5.33ZM366.67,566.67c0,18.41-14.92,33.33-33.33,33.33s-33.33-14.92-33.33-33.33v-200c0-18.41,14.92-33.33,33.33-33.33s33.33,14.92,33.33,33.33v200ZM466.67,333.33c18.41,0,33.33,14.92,33.33,33.33v200c0,18.41-14.92,33.33-33.33,33.33s-33.33-14.92-33.33-33.33v-200c0-18.41,14.92-33.33,33.33-33.33Z"/>
  <g>
    <path class="st1" d="M682.64,166.67h-3.64c-15.31-75.21-81.83-133.33-163.37-133.33h-49.39c-2.55-15.87-16.31-28-32.9-28h-66.67c-16.59,0-30.35,12.13-32.9,28h-49.39c-81.53,0-148.06,58.12-163.37,133.33h-3.64c-18.41,0-33.33,14.92-33.33,33.33s14.92,33.33,33.33,33.33h3.22l55.72,445.74c6.26,50.04,48.8,87.6,99.23,87.6h248.96c50.43,0,92.97-37.55,99.23-87.6l55.72-445.74h3.21c18.41,0,33.33-14.92,33.33-33.33s-14.92-33.33-33.33-33.33ZM383.33,19.33h33.33c8.3,0,15.17,6.06,16.45,14h-66.24c1.28-7.94,8.15-14,16.45-14ZM284.37,100h231.26c43.98,0,80.68,28.18,94.32,66.67H190.05c13.64-38.48,50.34-66.67,94.32-66.67ZM557.56,670.8c-2.08,16.68-16.26,29.2-33.08,29.2h-248.96c-16.81,0-30.99-12.52-33.08-29.2l-54.68-437.47h424.48l-54.68,437.47Z"/>
    <path class="st1" d="M333.33,333.33c-18.41,0-33.33,14.92-33.33,33.33v200c0,18.41,14.92,33.33,33.33,33.33s33.33-14.92,33.33-33.33v-200c0-18.41-14.92-33.33-33.33-33.33Z"/>
    <path class="st1" d="M433.33,566.67c0,18.41,14.92,33.33,33.33,33.33s33.33-14.92,33.33-33.33v-200c0-18.41-14.92-33.33-33.33-33.33s-33.33,14.92-33.33,33.33v200Z"/>
  </g>
</svg>