<?xml version="1.0" encoding="UTF-8"?><svg id="uuid-4b703cd4-88ff-4b91-ba10-bf6abdcebd6c" xmlns="http://www.w3.org/2000/svg" viewBox="0 0 328.17 333.08"><path d="M280.73,158.87c-15.52,15.94-31.09,35.77-52.55,43.41.53-12.13-1.06-24.17-3.56-35.99,6.45-3.76,10.54-10.3,15.53-15.53,13.18-13.82,43.69-38.88,50.21-54.79,18.14-44.32-34.4-80.74-72.1-51.1-12.68,9.97-58.3,55.65-65.62,68.38-10.89,18.94-9.67,43.89,7.01,59.06,4.42,4.02,11.92,6.96,13.29,13.71s.19,17.21-3.58,22.96c-4.46,6.79-7.1,4-13.55,1.17-37.74-16.59-52.15-63.57-38.12-100.84,9.86-26.21,41.45-52.58,61.53-72.5,12.78-12.69,21.05-24.14,38.96-31,65.33-25.03,129.44,35.1,104.47,101.47-7.47,19.86-27.16,36.46-41.92,51.61Z"/><path d="M101.17,134.28c.23,11.61,2.11,22.8,5,33.99-5.95,1.1-12.37,5.63-17.01,9.5-10.52,8.78-43.25,41.07-49.16,51.84-22.77,41.53,20.68,86.39,62.09,63.09,12.03-6.77,59.56-55.34,70.1-67.9,17.62-20.98,17.1-48.76-5.12-65.93-6.3-4.87-8.64-2.95-9.8-13.2-.46-4.09.66-21.21,4.1-23.17,4.16-2.38,19.42,5.86,23.52,8.55,37.5,24.67,43.51,78.58,15.24,112.7-15.89,19.17-49.39,52.17-68.5,68.5-70.1,59.92-163.63-20.8-120.85-98.85,8.42-15.36,44.55-50.98,58.91-63.09,8.68-7.33,20.29-14.07,31.47-16.03Z"/></svg>