<?xml version="1.0" encoding="UTF-8"?>
<svg id="Calque_1" xmlns="http://www.w3.org/2000/svg" version="1.1" viewBox="0 0 595.28 841.89">
  <!-- Generator: Adobe Illustrator 29.5.1, SVG Export Plug-In . SVG Version: 2.1.0 Build 141)  -->
  <defs>
<style>
    .st0 {
      fill: #fff;
      fill-opacity: 1; /* ou 0.7 si tu veux tester, mais idéalement laisse à 1 */
    }
  </style>
  </defs>
  <polygon class="st0" points="170.77 387.25 170.76 387.25 170.76 387.27 170.77 387.25"/>
  <path class="st0" d="M251.52,363.02h14.02l-18.27,24.22h41.65v-14.87h-13.26l16.66-24.22h-53.98l-7.65,18.1-16.99-45.3h-16.58v.03s.01,33.15.01,33.15c-1.27-1.78-2.79-3.24-4.56-4.37-2.58-1.64-5.51-2.46-8.8-2.46-2.94,0-5.8.76-8.58,2.29-2.06,1.14-3.84,2.68-5.36,4.63-.03-.11-.06-.24-.09-.35-.68-2.15-1.88-3.8-3.61-4.93-1.73-1.13-4.23-1.7-7.52-1.7-2.66,0-5.07.53-7.22,1.61-2.15,1.07-3.97,2.52-5.44,4.33-.74-1.98-1.97-3.47-3.7-4.46-1.73-.99-4.21-1.49-7.44-1.49-2.83,0-5.21.62-7.14,1.87-1.92,1.25-3.42,2.89-4.5,4.93v-5.86h-15.72v39.1h15.72v-23.8c0-1.31.17-2.37.51-3.19.34-.82.79-1.43,1.36-1.83.57-.4,1.19-.6,1.87-.6,1.3,0,2.21.5,2.72,1.49.52.99.77,2.36.77,4.12v23.8h16.57v-23.8c0-1.31.17-2.37.51-3.19.34-.82.79-1.43,1.36-1.83.57-.4,1.19-.6,1.87-.6,1.3,0,2.21.5,2.72,1.49.52.99.77,2.36.77,4.12v23.8h16.56v-5c1.3,1.44,2.77,2.63,4.43,3.54,2.77,1.52,5.63,2.29,8.58,2.29,3.29,0,6.22-.82,8.8-2.46,1.77-1.13,3.29-2.59,4.56-4.39v6.02h16.57v-24.72l16.99,30.24,16.72-29.75h4.11ZM196.09,371.78c-.67,1.13-1.55,2.01-2.63,2.63-1.07.62-2.18.93-3.31.93-1.24,0-2.4-.34-3.48-1.02-1.08-.68-1.93-1.6-2.55-2.76h0c-.63-1.15-.94-2.39-.94-3.86s.32-2.78.94-3.91,1.47-2.04,2.55-2.72c1.07-.68,2.23-1.02,3.48-1.02,1.13,0,2.23.32,3.31.94,1.07.62,1.95,1.5,2.63,2.63s1.02,2.49,1.02,4.08-.34,2.95-1.02,4.08Z"/>
  <path class="st0" d="M294.45,386.63c1.86,1.92,4.21,2.88,7.2,2.88s5.4-.96,7.24-2.88c1.83-1.92,2.75-4.21,2.75-6.86s-.92-4.94-2.75-6.86c-1.83-1.92-4.3-2.88-7.24-2.88s-5.34.96-7.2,2.88c-1.87,1.92-2.8,4.21-2.8,6.86s.94,4.94,2.8,6.86Z"/>
  <path class="st0" d="M117.85,397.6c-.37-.28-.84-.41-1.41-.41-.64,0-1.23.23-1.77.69-.54.46-.94,1.07-1.19,1.83-.1-.77-.35-1.39-.77-1.84s-.99-.68-1.71-.68c-.64,0-1.22.23-1.74.69-.52.46-.89,1.07-1.11,1.85v-2.33h-.65v9.57h.65v-5.83c0-.61.12-1.18.38-1.69.26-.52.59-.92,1.01-1.22.41-.3.86-.45,1.33-.45.71,0,1.23.25,1.56.75.33.5.5,1.17.5,2.02v6.41h.62v-5.83c0-.61.12-1.17.38-1.69.26-.52.6-.92,1.02-1.22.42-.3.87-.45,1.34-.45.71,0,1.23.25,1.56.75.33.5.5,1.17.5,2.02v6.41h.62l.02.02v-6.47c0-.68-.1-1.27-.29-1.76s-.48-.87-.85-1.14Z"/>
  <path class="st0" d="M123.92,392.27c-.14,0-.25.05-.34.14-.1.09-.14.2-.14.34,0,.12.05.23.14.33.09.1.2.15.34.15.15,0,.27-.05.35-.15.08-.09.12-.2.12-.33,0-.14-.04-.25-.12-.34-.08-.09-.2-.14-.35-.14Z"/>
  <rect class="st0" x="123.61" y="397.38" width=".64" height="9.57"/>
  <path class="st0" d="M136.39,400.25c-.06-.19-.13-.38-.21-.56-.34-.76-.81-1.37-1.42-1.83-.62-.46-1.36-.69-2.19-.69s-1.59.2-2.28.61c-.68.41-1.23.99-1.63,1.73v.02c-.4.74-.6,1.64-.6,2.65s.2,1.89.6,2.64c.4.75.94,1.33,1.63,1.74s1.43.61,2.28.61,1.57-.23,2.19-.69c.62-.46,1.09-1.07,1.42-1.84.08-.19.15-.37.21-.57v2.88h.62v-16.23h-.62v9.53ZM135.89,404.35c-.33.66-.78,1.19-1.33,1.6-.55.41-1.17.61-1.85.61-.75,0-1.43-.18-2.03-.53-.61-.35-1.09-.86-1.44-1.52v.02c-.35-.66-.53-1.43-.53-2.34s.18-1.7.53-2.35c.36-.65.84-1.16,1.44-1.51.6-.35,1.28-.53,2.03-.53.68,0,1.29.2,1.85.61.55.41,1,.94,1.33,1.6.33.65.5,1.38.5,2.17s-.17,1.51-.5,2.17Z"/>
  <rect class="st0" x="141.57" y="397.38" width=".64" height="9.57"/>
  <path class="st0" d="M141.88,392.27c-.14,0-.25.05-.34.14-.1.09-.14.2-.14.34,0,.12.05.23.14.33.09.1.2.15.34.15.15,0,.27-.05.35-.15.08-.09.12-.2.12-.33,0-.14-.04-.25-.12-.34-.08-.09-.2-.14-.35-.14Z"/>
  <path class="st0" d="M147.97,406.2c-.12,0-.24.05-.34.15h0c-.11.08-.16.2-.16.34s.05.25.15.34c.09.09.22.14.35.14s.25-.05.35-.14c.1-.09.15-.2.15-.34,0-.15-.05-.27-.15-.36-.09-.09-.21-.13-.35-.13Z"/>
  <polygon class="st0" points="154.32 394.05 153.67 394.05 153.67 397.38 152.11 397.38 152.11 397.98 153.67 397.98 153.67 406.95 154.32 406.95 154.32 397.98 155.88 397.98 155.88 397.38 154.32 397.38 154.32 394.05"/>
  <path class="st0" d="M165.44,397.81c-.74-.42-1.58-.64-2.5-.64s-1.74.21-2.48.64-1.32,1.02-1.75,1.77-.65,1.62-.65,2.58.22,1.81.65,2.57,1.01,1.35,1.75,1.78,1.55.65,2.48.65,1.76-.22,2.5-.65,1.32-1.02,1.75-1.78.65-1.6.65-2.57-.22-1.83-.65-2.58-1.01-1.34-1.75-1.77ZM166.62,404.43c-.38.66-.88,1.18-1.52,1.56-.63.37-1.35.56-2.14.56s-1.5-.19-2.15-.56c-.65-.37-1.16-.89-1.53-1.55s-.56-1.4-.56-2.26.19-1.63.56-2.29c.37-.66.88-1.19,1.53-1.56.64-.37,1.36-.56,2.15-.56s1.5.18,2.14.56c.64.37,1.15.89,1.52,1.56s.56,1.42.56,2.27-.19,1.6-.56,2.27Z"/>
  <polygon class="st0" points="173.97 405.61 170.34 397.37 169.59 397.37 173.61 406.26 171.28 411.53 171.99 411.53 172 411.52 178.24 397.37 177.53 397.37 173.97 405.61"/>
  <polygon class="st0" points="188.66 397.38 180.92 397.38 180.92 397.98 187.47 397.98 180.46 406.95 188.68 406.95 188.68 406.35 181.65 406.35 188.66 397.38"/>
  <path class="st0" d="M193.71,406.2c-.12,0-.24.05-.34.15h0c-.11.08-.16.2-.16.34s.05.25.15.34c.09.09.22.14.35.14s.25-.05.35-.14c.1-.09.15-.2.15-.34,0-.15-.05-.27-.15-.36-.09-.09-.21-.13-.35-.13Z"/>
  <path class="st0" d="M199.79,392.27c-.14,0-.25.05-.34.14-.1.09-.14.2-.14.34,0,.12.05.23.14.33.09.1.2.15.34.15.15,0,.27-.05.35-.15.08-.09.12-.2.12-.33,0-.14-.04-.25-.12-.34s-.2-.14-.35-.14Z"/>
  <rect class="st0" x="199.48" y="397.38" width=".64" height="9.57"/>
  <path class="st0" d="M211.31,397.81c-.74-.42-1.58-.64-2.5-.64s-1.74.21-2.48.64-1.32,1.02-1.75,1.77-.65,1.62-.65,2.58.22,1.81.65,2.57,1.01,1.35,1.75,1.78,1.55.65,2.48.65,1.76-.22,2.5-.65,1.32-1.02,1.75-1.78.65-1.6.65-2.57-.22-1.83-.65-2.58-1.01-1.34-1.75-1.77ZM212.48,404.43c-.38.66-.88,1.18-1.52,1.56-.63.37-1.35.56-2.14.56s-1.5-.19-2.15-.56c-.65-.37-1.16-.89-1.53-1.55s-.56-1.4-.56-2.26.19-1.63.56-2.29c.37-.66.88-1.19,1.53-1.56.64-.37,1.36-.56,2.15-.56s1.5.18,2.14.56c.64.37,1.15.89,1.52,1.56s.56,1.42.56,2.27-.19,1.6-.56,2.27Z"/>
  <rect class="st0" x="220.86" y="406.37" width="9.57" height=".64"/>
  <rect class="st0" x="230.86" y="397.37" width="9.57" height=".64"/>
  <rect class="st0" x="240.86" y="400.37" width="9.57" height=".64"/>
  <rect class="st0" x="260.86" y="403.37" width="9.57" height=".64"/>
  <rect class="st0" x="270.86" y="397.37" width="9.57" height=".64"/>
  <rect class="st0" x="280.86" y="403.37" width="9.57" height=".64"/>
  <rect class="st0" x="290.86" y="400.37" width="9.57" height=".64"/>
  <rect class="st0" x="300.86" y="406.37" width="9.57" height=".64"/>
  <rect class="st0" x="250.86" y="406.37" width="9.57" height=".64"/>
</svg>