<?xml version="1.0" encoding="UTF-8"?>
<svg id="Layer_1" xmlns="http://www.w3.org/2000/svg" version="1.1" viewBox="0 0 800 800">
  <!-- Generator: Adobe Illustrator 30.1.0, SVG Export Plug-In . SVG Version: 2.1.1 Build 136)  -->
  <defs>
    <style>
      .st0 {
        fill: #0f0f0f;
        fill-rule: evenodd;
      }
    </style>
  </defs>
  <path class="st0" d="M400,0c-25.51,0-45.69,4.19-61.44,11.97-5.74,2.84-11.2,6.18-15.6,8.93l-3.28,2.05c-3.3,2.07-6.07,3.82-8.98,5.5-7.54,4.36-10.4,4.82-10.68,4.87-.02,0-.01,0,0,0-36.82,0-66.68,29.85-66.68,66.67h-33.33c-55.23,0-100,44.77-100,100v466.67c0,55.23,44.77,100,100,100h400c55.23,0,100-44.77,100-100V200c0-55.23-44.77-100-100-100h-33.33c0-36.82-29.85-66.67-66.67-66.67.01,0,.02,0,0,0-.28-.05-3.15-.51-10.69-4.87-2.91-1.68-5.69-3.43-8.99-5.5l-3.27-2.05c-4.4-2.75-9.86-6.1-15.6-8.93-15.75-7.78-35.93-11.97-61.44-11.97ZM557.75,166.67c-11.53,19.93-33.07,33.33-57.75,33.33h-200c-24.68,0-46.22-13.41-57.75-33.33h-42.25c-18.41,0-33.33,14.92-33.33,33.33v466.67c0,18.41,14.92,33.33,33.33,33.33h400c18.41,0,33.33-14.92,33.33-33.33V200c0-18.41-14.92-33.33-33.33-33.33h-42.25ZM368.09,71.74c4-1.98,13.33-5.08,31.91-5.08s27.91,3.1,31.91,5.08c2.51,1.24,5.54,3.03,9.81,5.7l2.48,1.56c3.46,2.18,7.64,4.81,11.74,7.18,9.76,5.64,25.5,13.82,44.06,13.82v33.33h-200v-33.33c18.56,0,34.29-8.18,44.06-13.82,4.1-2.37,8.28-5,11.74-7.18l2.48-1.56c4.27-2.67,7.29-4.46,9.81-5.7Z"/>
  <path class="st0" d="M552,578.59c0,7.68-6.23,13.91-13.91,13.91h-278.18c-7.68,0-13.91-6.23-13.91-13.91s6.23-13.91,13.91-13.91h278.18c7.68,0,13.91,6.23,13.91,13.91Z"/>
  <path class="st0" d="M417.22,532.53c-10.46,9.06-25.98,9.06-36.44,0l-67.03-58.09c-19.46-16.87-7.53-48.84,18.22-48.84h25.3v-111.27c0-15.36,12.45-27.82,27.82-27.82h27.82c15.36,0,27.82,12.45,27.82,27.82v111.27h25.3c25.75,0,37.68,31.97,18.22,48.84l-67.03,58.09ZM389.89,503.61c5.23,4.53,12.99,4.53,18.22,0l57.92-50.2h-32.26c-11.52,0-20.86-9.34-20.86-20.86v-118.23h-27.82v118.23c0,11.52-9.34,20.86-20.86,20.86h-32.26l57.92,50.2Z"/>
</svg>