<?xml version="1.0" encoding="UTF-8"?><svg id="uuid-a39f73f9-cc6c-4c4e-b0d2-17c6401c1e9f" xmlns="http://www.w3.org/2000/svg" viewBox="0 0 352.75 353.09"><path d="M202.11,178.06c19.13,5.32,34.18.82,48.52-11.97,16.41-14.63,41.52-38.96,55.51-55.52,38.77-45.88-20.29-104.74-69.54-60.57-15.33,13.75-34.73,33.2-48.51,48.52-12,13.34-20.35,26.6-18.98,45.53-4.13-5.11-27.59-24.53-28.82-28.72-.87-2.96,1.74-7.7,2.97-10.64,8.62-20.56,36.42-46.29,52.79-62.18C219.98,19.3,238.63-1.3,275.6.06c65.42,2.42,101.38,79.27,58.53,129.51-15.85,18.58-46.43,49.13-65.01,64.99-9.31,7.94-21.2,14.77-33.05,17.98l-33.96-34.48Z"/><path d="M120.11,187.04c-11.01-.21-21.96,4.19-30.48,11.03-10.39,8.34-42.3,40.34-48.94,51.06-27.48,44.4,25.96,90.95,64.94,58.94,11.71-9.62,49.68-47.63,54.96-60.04,2.08-4.9,3.95-10.64,3.53-15.98l27.55,26.03c-3.55,13.53-14.21,25.37-23.58,35.49-14.42,15.55-46.79,48.74-65.74,55.21-64.25,21.94-121.19-44-96.41-105.41,7.4-18.35,48.9-60.49,65.17-73.83,5.98-4.9,13.64-8.85,21.03-11.02l27.98,28.52Z"/><path d="M93.76,93.42l163.14,164.35c2.48,6.42-13.43,20.68-18.44,20.98-1.91.11-3.97-.95-5.4-2.17L71.11,114.55c-6.82-8.85,8.95-14.84,12.3-22.19,3.96-2.02,6.84-1.35,10.35,1.06Z"/></svg>